<svg width="201" height="42" viewBox="0 0 201 42" fill="none" xmlns="http://www.w3.org/2000/svg">
<path d="M30.1224 18.5596C28.9867 19.7183 28.4191 21.3299 28.5741 22.956L28.5474 22.929C28.7067 24.8426 28.026 26.7302 26.6868 28.0881C25.3476 29.4461 23.4862 30.1363 21.599 29.9748L21.6257 30.0018C19.3407 29.7861 17.1678 31.0464 16.1926 33.1529C15.2175 35.2593 15.6496 37.7596 17.273 39.4043C18.8965 41.049 21.3626 41.4849 23.439 40.4942C25.5155 39.5035 26.7564 37.2989 26.5417 34.9822L26.5698 35.0092C26.4105 33.0956 27.0912 31.208 28.4304 29.8501C29.7696 28.4921 31.631 27.8019 33.5182 27.9634L33.4901 27.9364C36.0013 28.1654 38.338 26.6127 39.1334 24.1866C39.9288 21.7605 38.9739 19.0982 36.8273 17.7571C34.6807 16.4159 31.9063 16.7482 30.1269 18.5596H30.1224Z" fill="#5454D4"/>
<path d="M19.2025 26.4623L19.1744 26.4353C20.779 26.5993 22.3715 26.0239 23.5124 24.8679C24.6532 23.7119 25.2219 22.0976 25.0614 20.4703L25.0895 20.4973C24.9302 18.5837 25.611 16.6962 26.9501 15.3382C28.2893 13.9803 30.1508 13.29 32.0379 13.4516L32.0098 13.4245C34.2949 13.6421 36.4692 12.3832 37.4458 10.2771C38.4224 8.17092 37.9916 5.66993 36.3687 4.02425C34.7457 2.37856 32.2793 1.94167 30.2022 2.93197C28.1252 3.92226 26.8837 6.12702 27.0983 8.44417L27.0716 8.41565C27.2315 10.3294 26.5509 12.2172 25.2116 13.5753C23.8723 14.9334 22.0105 15.6235 20.1232 15.4614L20.1499 15.4899C18.5452 15.326 16.9527 15.9014 15.8118 17.0573C14.671 18.2133 14.1023 19.8277 14.2628 21.455L14.2362 21.4279C14.395 23.3414 13.7141 25.2286 12.375 26.5864C11.0359 27.9443 9.17482 28.6347 7.28778 28.4737L7.31442 28.5007C5.02929 28.2831 2.855 29.542 1.87839 31.6482C0.90178 33.7543 1.33263 36.2553 2.95557 37.901C4.57852 39.5467 7.04495 39.9836 9.122 38.9933C11.199 38.003 12.4406 35.7982 12.226 33.4811L12.2541 33.5081C12.0948 31.5945 12.7755 29.707 14.1147 28.349C15.4539 26.9911 17.3153 26.3008 19.2025 26.4623V26.4623Z" fill="#FF7143"/>
<path d="M9.28171 23.4499C10.4177 22.2914 10.9848 20.6795 10.8286 19.0535L10.8567 19.0805C10.6973 17.1663 11.3784 15.2782 12.7183 13.9202C14.0581 12.5621 15.9204 11.8723 17.8081 12.0347L17.78 12.0077C20.0643 12.2247 22.2375 10.9659 23.2135 8.86043C24.1896 6.75495 23.7587 4.25494 22.1364 2.60987C20.5141 0.96479 18.0486 0.52793 15.9722 1.51762C13.8958 2.50731 12.6544 4.71101 12.8684 7.02735L12.8418 7.00033C13.0011 8.91396 12.3203 10.8015 10.9812 12.1594C9.64198 13.5174 7.78054 14.2076 5.89336 14.0461L5.92001 14.0731C3.40888 13.8448 1.07266 15.3978 0.277732 17.824C-0.517197 20.2501 0.437973 22.912 2.58459 24.2529C4.73121 25.5937 7.50542 25.2612 9.28467 23.4499H9.28171Z" fill="#5454D4"/>
<path d="M55.1361 8.47876H59.5325V30.1729H55.1361V8.47876Z" fill="#19191B"/>
<path fill-rule="evenodd" clip-rule="evenodd" d="M66.7954 15.4456C63.8941 16.6746 62.0097 19.5561 62.0223 22.7444C62.0071 24.835 62.8215 26.844 64.2823 28.3194C65.7431 29.7947 67.7276 30.6125 69.7893 30.5887C72.9336 30.5886 75.7676 28.6663 76.968 25.7195C78.1683 22.7726 77.4981 19.3826 75.2703 17.1326C73.0425 14.8827 69.6967 14.2167 66.7954 15.4456ZM69.7268 19.4202C71.5767 19.3856 73.1087 20.869 73.1598 22.7444C73.2098 23.6741 72.874 24.5827 72.2337 25.2501C71.5935 25.9176 70.7072 26.2831 69.7892 26.2583C67.939 26.2584 66.4343 24.7467 66.4171 22.8706C66.4 20.9945 67.8769 19.4549 69.7268 19.4202Z" fill="#19191B"/>
<path fill-rule="evenodd" clip-rule="evenodd" d="M95.0783 29.4239V15.3144L90.7989 15.3114V16.8274C89.7549 15.5321 88.1672 14.8154 86.5194 14.8956C82.4998 15.0241 79.3069 18.3655 79.3069 22.4435C79.3069 26.5214 82.4998 29.8628 86.5194 29.9913C88.1672 30.0715 89.7549 29.3548 90.7989 28.0595V29.4179C90.8724 30.3142 90.5404 31.1958 89.8963 31.8141C89.2523 32.4324 88.366 32.7205 87.4875 32.5971C86.0978 32.7409 84.7661 31.9948 84.1465 30.7253L80.3955 32.9243C81.863 35.3488 84.5433 36.739 87.3409 36.5267C91.2385 36.5267 95.0783 34.4163 95.0783 29.4239ZM88.7112 19.0116C90.0338 19.6164 90.8608 20.9758 90.8003 22.4456C90.8277 23.3947 90.458 24.3113 89.7827 24.969C89.1073 25.6266 88.1892 25.9641 87.2551 25.898C85.8043 25.8998 84.4982 25.0069 83.9558 23.6424C83.4133 22.278 83.7436 20.7162 84.79 19.6972C85.8364 18.6782 87.3887 18.4068 88.7112 19.0116Z" fill="#19191B"/>
<path fill-rule="evenodd" clip-rule="evenodd" d="M102.341 15.4456C99.4399 16.6746 97.5555 19.5561 97.5681 22.7444C97.5529 24.835 98.3673 26.844 99.8281 28.3194C101.289 29.7947 103.273 30.6125 105.335 30.5887C108.479 30.5886 111.313 28.6663 112.514 25.7195C113.714 22.7726 113.044 19.3826 110.816 17.1326C108.588 14.8827 105.243 14.2167 102.341 15.4456ZM105.273 19.4202C107.123 19.3856 108.654 20.869 108.706 22.7444C108.756 23.6741 108.42 24.5827 107.78 25.2501C107.139 25.9176 106.253 26.2831 105.335 26.2583C103.485 26.2584 101.98 24.7467 101.963 22.8706C101.946 20.9945 103.423 19.4549 105.273 19.4202Z" fill="#19191B"/>
<path fill-rule="evenodd" clip-rule="evenodd" d="M116.781 8.86103C115.795 9.27504 115.152 10.2504 115.152 11.3322C115.167 12.8034 116.339 13.9924 117.79 14.007C118.857 14.007 119.819 13.3553 120.227 12.3558C120.635 11.3563 120.41 10.2058 119.655 9.44086C118.901 8.67587 117.766 8.44703 116.781 8.86103ZM119.994 15.3144H115.596L115.59 30.1744H119.994V15.3144Z" fill="#19191B"/>
<path fill-rule="evenodd" clip-rule="evenodd" d="M137.084 28.1435C138.398 26.6711 139.08 24.7279 138.977 22.7444C139.081 20.7604 138.399 18.8166 137.085 17.3439C135.77 15.8711 133.93 14.9909 131.973 14.8986C130.323 14.8073 128.72 15.4725 127.607 16.7103V15.3143H123.211V36.1169H127.607V28.7754C128.72 30.0141 130.323 30.6799 131.973 30.5887C133.929 30.4959 135.769 29.6158 137.084 28.1435ZM131.036 19.297C132.951 19.2645 134.533 20.8033 134.581 22.7443C134.647 23.7089 134.304 24.6564 133.639 25.3487C132.973 26.041 132.047 26.4123 131.095 26.3693C129.18 26.3695 127.623 24.8042 127.607 22.8627C127.591 20.9211 129.122 19.3295 131.036 19.297Z" fill="#19191B"/>
<path d="M152.544 25.715C152.544 29.1328 149.614 30.5888 146.45 30.5888C143.833 30.8291 141.337 29.428 140.148 27.0524L143.957 24.8534C144.274 25.9593 145.311 26.69 146.444 26.6066C147.498 26.6066 148.026 26.2793 148.026 25.6864C148.026 24.0503 140.816 24.9134 140.816 19.7724C140.816 16.5318 143.513 14.8987 146.561 14.8987C148.894 14.8238 151.083 16.0417 152.275 18.0778L148.524 20.1282C148.187 19.3325 147.414 18.8177 146.561 18.8208C145.798 18.8208 145.329 19.121 145.329 19.6524C145.335 21.347 152.544 20.2167 152.544 25.715Z" fill="#19191B"/>
<path d="M168.603 15.3143V30.1744H164.207V28.7769C163.178 30.0278 161.62 30.7022 160.018 30.5902C157.057 30.5902 154.541 28.4512 154.541 24.436V15.3143H158.937V23.7831C158.863 24.4994 159.103 25.2126 159.594 25.7331C160.085 26.2536 160.777 26.5286 161.486 26.4849C163.098 26.4849 164.211 25.5347 164.211 23.4243V15.3188L168.603 15.3143Z" fill="#19191B"/>
<path d="M193.812 21.0498V30.1729H189.416V21.4355C189.416 19.9495 188.713 18.9994 187.307 18.9994C185.841 18.9994 185.02 20.0396 185.02 21.7928V30.1729H180.625V21.4355C180.625 19.9495 179.922 18.9994 178.514 18.9994C177.048 18.9994 176.228 20.0396 176.228 21.7928V30.1729H171.832V15.3129H176.228V16.6788C177.154 15.4475 178.633 14.7766 180.155 14.8971C181.686 14.8212 183.143 15.5655 183.994 16.8575C184.984 15.5068 186.589 14.7665 188.244 14.8971C191.608 14.8986 193.812 17.3348 193.812 21.0498Z" fill="#19191B"/>
<path d="M197.531 15.2229C199.333 15.2229 200.793 13.7418 200.793 11.9147C200.793 10.0876 199.333 8.60645 197.531 8.60645C195.729 8.60645 194.268 10.0876 194.268 11.9147C194.268 13.7418 195.729 15.2229 197.531 15.2229Z" fill="#19191B"/>
</svg>
